<svg xmlns="http://www.w3.org/2000/svg" viewBox="0 0 512 512" role="img" aria-label="AI+CryoET snowflake network">
  <defs>
    <filter id="glow" x="-50%" y="-50%" width="200%" height="200%">
      <feGaussianBlur stdDeviation="8"/>
    </filter>
  </defs>
  <rect width="512" height="512" rx="96" ry="96" fill="#145266"/>
  <g>
    <line x1="256" y1="256" x2="256" y2="101" stroke="#a8d4f0" stroke-width="4" stroke-linecap="round" stroke-opacity="1.0"/>
    <line x1="256" y1="256" x2="390.23" y2="178.5" stroke="#a8d4f0" stroke-width="4" stroke-linecap="round" stroke-opacity="1.0"/>
    <line x1="256" y1="256" x2="390.23" y2="333.5" stroke="#a8d4f0" stroke-width="4" stroke-linecap="round" stroke-opacity="1.0"/>
    <line x1="256" y1="256" x2="256" y2="411" stroke="#a8d4f0" stroke-width="4" stroke-linecap="round" stroke-opacity="1.0"/>
    <line x1="256" y1="256" x2="121.77" y2="333.5" stroke="#a8d4f0" stroke-width="4" stroke-linecap="round" stroke-opacity="1.0"/>
    <line x1="256" y1="256" x2="121.77" y2="178.5" stroke="#a8d4f0" stroke-width="4" stroke-linecap="round" stroke-opacity="1.0"/>
    <line x1="256" y1="176" x2="190.04" y2="161.8" stroke="#a8d4f0" stroke-width="3" stroke-linecap="round" stroke-opacity="0.7"/>
    <line x1="256" y1="176" x2="321.96" y2="161.8" stroke="#a8d4f0" stroke-width="3" stroke-linecap="round" stroke-opacity="0.7"/>
    <line x1="325.28" y1="216" x2="304.6" y2="151.77" stroke="#a8d4f0" stroke-width="3" stroke-linecap="round" stroke-opacity="0.7"/>
    <line x1="325.28" y1="216" x2="370.56" y2="266.02" stroke="#a8d4f0" stroke-width="3" stroke-linecap="round" stroke-opacity="0.7"/>
    <line x1="325.28" y1="296" x2="370.56" y2="245.98" stroke="#a8d4f0" stroke-width="3" stroke-linecap="round" stroke-opacity="0.7"/>
    <line x1="325.28" y1="296" x2="304.6" y2="360.23" stroke="#a8d4f0" stroke-width="3" stroke-linecap="round" stroke-opacity="0.7"/>
    <line x1="256" y1="336" x2="321.96" y2="350.2" stroke="#a8d4f0" stroke-width="3" stroke-linecap="round" stroke-opacity="0.7"/>
    <line x1="256" y1="336" x2="190.04" y2="350.2" stroke="#a8d4f0" stroke-width="3" stroke-linecap="round" stroke-opacity="0.7"/>
    <line x1="186.72" y1="296" x2="207.4" y2="360.23" stroke="#a8d4f0" stroke-width="3" stroke-linecap="round" stroke-opacity="0.7"/>
    <line x1="186.72" y1="296" x2="141.44" y2="245.98" stroke="#a8d4f0" stroke-width="3" stroke-linecap="round" stroke-opacity="0.7"/>
    <line x1="186.72" y1="216" x2="141.44" y2="266.02" stroke="#a8d4f0" stroke-width="3" stroke-linecap="round" stroke-opacity="0.7"/>
    <line x1="186.72" y1="216" x2="207.4" y2="151.77" stroke="#a8d4f0" stroke-width="3" stroke-linecap="round" stroke-opacity="0.7"/>
    <line x1="256" y1="101" x2="181.2" y2="95.58" stroke="#a8d4f0" stroke-width="2" stroke-linecap="round" stroke-opacity="0.51"/>
    <line x1="256" y1="101" x2="330.8" y2="95.58" stroke="#a8d4f0" stroke-width="2" stroke-linecap="round" stroke-opacity="0.51"/>
    <line x1="390.23" y1="178.5" x2="357.52" y2="111.01" stroke="#a8d4f0" stroke-width="2" stroke-linecap="round" stroke-opacity="0.51"/>
    <line x1="390.23" y1="178.5" x2="432.33" y2="240.57" stroke="#a8d4f0" stroke-width="2" stroke-linecap="round" stroke-opacity="0.51"/>
    <line x1="390.23" y1="333.5" x2="432.33" y2="271.43" stroke="#a8d4f0" stroke-width="2" stroke-linecap="round" stroke-opacity="0.51"/>
    <line x1="390.23" y1="333.5" x2="357.52" y2="400.99" stroke="#a8d4f0" stroke-width="2" stroke-linecap="round" stroke-opacity="0.51"/>
    <line x1="256" y1="411" x2="330.8" y2="416.42" stroke="#a8d4f0" stroke-width="2" stroke-linecap="round" stroke-opacity="0.51"/>
    <line x1="256" y1="411" x2="181.2" y2="416.42" stroke="#a8d4f0" stroke-width="2" stroke-linecap="round" stroke-opacity="0.51"/>
    <line x1="121.77" y1="333.5" x2="154.48" y2="400.99" stroke="#a8d4f0" stroke-width="2" stroke-linecap="round" stroke-opacity="0.51"/>
    <line x1="121.77" y1="333.5" x2="79.67" y2="271.43" stroke="#a8d4f0" stroke-width="2" stroke-linecap="round" stroke-opacity="0.51"/>
    <line x1="121.77" y1="178.5" x2="79.67" y2="240.57" stroke="#a8d4f0" stroke-width="2" stroke-linecap="round" stroke-opacity="0.51"/>
    <line x1="121.77" y1="178.5" x2="154.48" y2="111.01" stroke="#a8d4f0" stroke-width="2" stroke-linecap="round" stroke-opacity="0.51"/>
    <g filter="url(#glow)">
    <circle cx="256" cy="101" r="16" fill="#a8d4f0" fill-opacity="0.78"/>
    <circle cx="390.23" cy="178.5" r="16" fill="#a8d4f0" fill-opacity="0.78"/>
    <circle cx="390.23" cy="333.5" r="16" fill="#a8d4f0" fill-opacity="0.78"/>
    <circle cx="256" cy="411" r="16" fill="#a8d4f0" fill-opacity="0.78"/>
    <circle cx="121.77" cy="333.5" r="16" fill="#a8d4f0" fill-opacity="0.78"/>
    <circle cx="121.77" cy="178.5" r="16" fill="#a8d4f0" fill-opacity="0.78"/>
    <circle cx="256" cy="176" r="11" fill="#a8d4f0" fill-opacity="0.78"/>
    <circle cx="325.28" cy="216" r="11" fill="#a8d4f0" fill-opacity="0.78"/>
    <circle cx="325.28" cy="296" r="11" fill="#a8d4f0" fill-opacity="0.78"/>
    <circle cx="256" cy="336" r="11" fill="#a8d4f0" fill-opacity="0.78"/>
    <circle cx="186.72" cy="296" r="11" fill="#a8d4f0" fill-opacity="0.78"/>
    <circle cx="186.72" cy="216" r="11" fill="#a8d4f0" fill-opacity="0.78"/>
    <circle cx="190.04" cy="161.8" r="8" fill="#a8d4f0" fill-opacity="0.7"/>
    <circle cx="321.96" cy="161.8" r="8" fill="#a8d4f0" fill-opacity="0.7"/>
    <circle cx="304.6" cy="151.77" r="8" fill="#a8d4f0" fill-opacity="0.7"/>
    <circle cx="370.56" cy="266.02" r="8" fill="#a8d4f0" fill-opacity="0.7"/>
    <circle cx="370.56" cy="245.98" r="8" fill="#a8d4f0" fill-opacity="0.7"/>
    <circle cx="304.6" cy="360.23" r="8" fill="#a8d4f0" fill-opacity="0.7"/>
    <circle cx="321.96" cy="350.2" r="8" fill="#a8d4f0" fill-opacity="0.7"/>
    <circle cx="190.04" cy="350.2" r="8" fill="#a8d4f0" fill-opacity="0.7"/>
    <circle cx="207.4" cy="360.23" r="8" fill="#a8d4f0" fill-opacity="0.7"/>
    <circle cx="141.44" cy="245.98" r="8" fill="#a8d4f0" fill-opacity="0.7"/>
    <circle cx="141.44" cy="266.02" r="8" fill="#a8d4f0" fill-opacity="0.7"/>
    <circle cx="207.4" cy="151.77" r="8" fill="#a8d4f0" fill-opacity="0.7"/>
    <circle cx="256" cy="256" r="28" fill="#a8d4f0" fill-opacity="1.0"/>
    </g>
    <circle cx="256" cy="101" r="14" fill="#a8d4f0" fill-opacity="1.0"/>
    <circle cx="390.23" cy="178.5" r="14" fill="#a8d4f0" fill-opacity="1.0"/>
    <circle cx="390.23" cy="333.5" r="14" fill="#a8d4f0" fill-opacity="1.0"/>
    <circle cx="256" cy="411" r="14" fill="#a8d4f0" fill-opacity="1.0"/>
    <circle cx="121.77" cy="333.5" r="14" fill="#a8d4f0" fill-opacity="1.0"/>
    <circle cx="121.77" cy="178.5" r="14" fill="#a8d4f0" fill-opacity="1.0"/>
    <circle cx="256" cy="176" r="9" fill="#a8d4f0" fill-opacity="1.0"/>
    <circle cx="325.28" cy="216" r="9" fill="#a8d4f0" fill-opacity="1.0"/>
    <circle cx="325.28" cy="296" r="9" fill="#a8d4f0" fill-opacity="1.0"/>
    <circle cx="256" cy="336" r="9" fill="#a8d4f0" fill-opacity="1.0"/>
    <circle cx="186.72" cy="296" r="9" fill="#a8d4f0" fill-opacity="1.0"/>
    <circle cx="186.72" cy="216" r="9" fill="#a8d4f0" fill-opacity="1.0"/>
    <circle cx="190.04" cy="161.8" r="6" fill="#a8d4f0" fill-opacity="1.0"/>
    <circle cx="321.96" cy="161.8" r="6" fill="#a8d4f0" fill-opacity="1.0"/>
    <circle cx="304.6" cy="151.77" r="6" fill="#a8d4f0" fill-opacity="1.0"/>
    <circle cx="370.56" cy="266.02" r="6" fill="#a8d4f0" fill-opacity="1.0"/>
    <circle cx="370.56" cy="245.98" r="6" fill="#a8d4f0" fill-opacity="1.0"/>
    <circle cx="304.6" cy="360.23" r="6" fill="#a8d4f0" fill-opacity="1.0"/>
    <circle cx="321.96" cy="350.2" r="6" fill="#a8d4f0" fill-opacity="1.0"/>
    <circle cx="190.04" cy="350.2" r="6" fill="#a8d4f0" fill-opacity="1.0"/>
    <circle cx="207.4" cy="360.23" r="6" fill="#a8d4f0" fill-opacity="1.0"/>
    <circle cx="141.44" cy="245.98" r="6" fill="#a8d4f0" fill-opacity="1.0"/>
    <circle cx="141.44" cy="266.02" r="6" fill="#a8d4f0" fill-opacity="1.0"/>
    <circle cx="207.4" cy="151.77" r="6" fill="#a8d4f0" fill-opacity="1.0"/>
    <circle cx="256" cy="256" r="22" fill="#a8d4f0" fill-opacity="1.0"/>
    <circle cx="256" cy="256" r="14" fill="#145266" fill-opacity="1.0"/>
    <circle cx="256" cy="256" r="8" fill="#a8d4f0" fill-opacity="1.0"/>
  </g>
</svg>
